<svg xmlns="http://www.w3.org/2000/svg" width="58.6" height="65.111" viewBox="0 0 58.6 65.111"><path d="M59.845,68.111a3.076,3.076,0,0,1-3.256-3.256V58.345a9.592,9.592,0,0,0-9.767-9.767H20.778a9.592,9.592,0,0,0-9.767,9.767v6.511a3.076,3.076,0,0,1-3.256,3.256A3.076,3.076,0,0,1,4.5,64.856V58.345A16.12,16.12,0,0,1,20.778,42.067H46.822A16.12,16.12,0,0,1,63.1,58.345v6.511A3.076,3.076,0,0,1,59.845,68.111ZM33.8,35.556A16.12,16.12,0,0,1,17.522,19.278a16.278,16.278,0,0,1,32.556,0A16.12,16.12,0,0,1,33.8,35.556Zm0-26.044a9.592,9.592,0,0,0-9.767,9.767A9.592,9.592,0,0,0,33.8,29.044a9.592,9.592,0,0,0,9.767-9.767A9.592,9.592,0,0,0,33.8,9.511Z" transform="translate(-4.5 -3)"/></svg>