<svg xmlns="http://www.w3.org/2000/svg" width="51.017" height="45.051" viewBox="0 0 51.017 45.051"><defs><style>.a{fill:rgba(47,47,47,0.95);}</style></defs><path class="a" d="M26.325,48.051a2.025,2.025,0,0,1-1.561-.669L5.137,27.756a14.538,14.538,0,0,1,0-20.518A14.188,14.188,0,0,1,15.174,3,14.709,14.709,0,0,1,25.433,7.237l.892.892.892-.892h0A14.318,14.318,0,0,1,37.476,3h0A14.709,14.709,0,0,1,47.735,7.237h0a14.675,14.675,0,0,1,0,20.518L28.109,47.382A2.966,2.966,0,0,1,26.325,48.051ZM15.174,7.461a9.274,9.274,0,0,0-6.914,2.9,9.964,9.964,0,0,0,0,14.274L26.325,42.7,44.39,24.633a9.762,9.762,0,0,0,2.9-7.137,10.741,10.741,0,0,0-2.9-7.137h0a9.785,9.785,0,0,0-6.914-2.9h0a10.741,10.741,0,0,0-7.137,2.9h0l-2.23,2.453a2.156,2.156,0,0,1-3.122,0L22.533,10.36A10.267,10.267,0,0,0,15.174,7.461Z" transform="translate(-0.9 -3)"/></svg>