<svg xmlns="http://www.w3.org/2000/svg" width="34.313" height="30.3" viewBox="0 0 34.313 30.3"><path d="M18,33.3a1.362,1.362,0,0,1-1.05-.45L3.75,19.65a9.778,9.778,0,0,1,0-13.8A9.543,9.543,0,0,1,10.5,3a9.893,9.893,0,0,1,6.9,2.85l.6.6.6-.6h0A9.63,9.63,0,0,1,25.5,3h0a9.893,9.893,0,0,1,6.9,2.85h0a9.87,9.87,0,0,1,0,13.8L19.2,32.85A2,2,0,0,1,18,33.3ZM10.5,6A6.237,6.237,0,0,0,5.85,7.95a6.7,6.7,0,0,0,0,9.6L18,29.7,30.15,17.55a6.566,6.566,0,0,0,1.95-4.8,7.224,7.224,0,0,0-1.95-4.8h0A6.581,6.581,0,0,0,25.5,6h0a7.224,7.224,0,0,0-4.8,1.95h0L19.2,9.6a1.45,1.45,0,0,1-2.1,0L15.45,7.95A6.905,6.905,0,0,0,10.5,6Z" transform="translate(-0.9 -3)"/></svg>