<svg xmlns="http://www.w3.org/2000/svg" xmlns:xlink="http://www.w3.org/1999/xlink" width="257.292" height="42.705" viewBox="0 0 257.292 42.705">
  <defs>
    <filter id="Pfad_34" x="0" y="0" width="257.292" height="42.705" filterUnits="userSpaceOnUse">
      <feOffset dx="2" dy="2" input="SourceAlpha"/>
      <feGaussianBlur stdDeviation="0.5" result="blur"/>
      <feFlood flood-opacity="0.161"/>
      <feComposite operator="in" in2="blur"/>
      <feComposite in="SourceGraphic"/>
    </filter>
  </defs>
  <g transform="matrix(1, 0, 0, 1, 0, 0)" filter="url(#Pfad_34)">
    <path id="Pfad_34-2" data-name="Pfad 34" d="M42.6-3.579V0L6.384,0V-39.2h26.88v3.584H10.528v13.944H30.8v3.528H10.528v14.56ZM67.928,0,55.272-17.248,42.672,0h-4.76l14.9-20.16L38.864-39.2h4.76L55.44-23.184,67.2-39.2h4.48L57.792-20.272,72.744,0ZM111.5-39.2V0h-4.088V-18.088H82.88V0H78.736V-39.2H82.88v17.472h24.528V-39.2Zm12.768,0h4.144V0h-4.144Zm41.608,18.984a10.4,10.4,0,0,1,5.964,3.332,9.609,9.609,0,0,1,2.1,6.412,9.023,9.023,0,0,1-3.724,7.756Q166.488,0,159.208,0H141.176V-39.2h16.912q6.552,0,10.164,2.632a8.673,8.673,0,0,1,3.612,7.448,9.341,9.341,0,0,1-1.6,5.516A9.568,9.568,0,0,1,165.872-20.216ZM145.32-35.784V-21.56h12.488q4.76,0,7.336-1.82a6.074,6.074,0,0,0,2.576-5.292,6.074,6.074,0,0,0-2.576-5.292q-2.576-1.82-7.336-1.82ZM159.152-3.416q5.264,0,7.952-1.792a6.252,6.252,0,0,0,2.688-5.6q0-7.336-10.64-7.336H145.32V-3.416ZM183.4-39.2h4.144V0H183.4Zm24.528,3.584H194.152V-39.2h42.4v3.584H212.072V0h-4.144ZM260.176-3.584V0h-27.72V-39.2h26.88v3.584H236.6v13.944h20.272v3.528H236.6v14.56Z" transform="translate(-6.38 39.2)" fill="rgba(255,255,255,0.95)"/>
  </g>
</svg>
