<svg xmlns="http://www.w3.org/2000/svg" width="42.8" height="47.556" viewBox="0 0 42.8 47.556"><defs><style>.a{fill:rgba(47,47,47,0.95);}</style></defs><path class="a"  d="M44.922,50.556a2.246,2.246,0,0,1-2.378-2.378V43.422a7.006,7.006,0,0,0-7.133-7.133H16.389a7.006,7.006,0,0,0-7.133,7.133v4.756a2.246,2.246,0,0,1-2.378,2.378A2.246,2.246,0,0,1,4.5,48.178V43.422A11.773,11.773,0,0,1,16.389,31.533H35.411A11.773,11.773,0,0,1,47.3,43.422v4.756A2.246,2.246,0,0,1,44.922,50.556ZM25.9,26.778A11.773,11.773,0,0,1,14.011,14.889a11.889,11.889,0,0,1,23.778,0A11.773,11.773,0,0,1,25.9,26.778Zm0-19.022a7.006,7.006,0,0,0-7.133,7.133,7.133,7.133,0,1,0,14.267,0A7.006,7.006,0,0,0,25.9,7.756Z" transform="translate(-4.5 -3)"/></svg>