<svg xmlns="http://www.w3.org/2000/svg" width="36" height="30" viewBox="0 0 36 30"><g transform="translate(0 -3)"><path d="M24,33a1.417,1.417,0,0,1-1.5-1.5v-3A4.42,4.42,0,0,0,18,24H7.5A4.42,4.42,0,0,0,3,28.5v3A1.417,1.417,0,0,1,1.5,33,1.417,1.417,0,0,1,0,31.5v-3A7.427,7.427,0,0,1,7.5,21H18a7.427,7.427,0,0,1,7.5,7.5v3A1.417,1.417,0,0,1,24,33ZM12.75,18a7.427,7.427,0,0,1-7.5-7.5A7.427,7.427,0,0,1,12.75,3a7.427,7.427,0,0,1,7.5,7.5A7.427,7.427,0,0,1,12.75,18Zm0-12a4.42,4.42,0,0,0-4.5,4.5,4.42,4.42,0,0,0,4.5,4.5,4.42,4.42,0,0,0,4.5-4.5A4.42,4.42,0,0,0,12.75,6ZM30,22.5A1.417,1.417,0,0,1,28.5,21V12a1.5,1.5,0,0,1,3,0v9A1.417,1.417,0,0,1,30,22.5Z"/><path d="M34.5,18h-9A1.417,1.417,0,0,1,24,16.5,1.417,1.417,0,0,1,25.5,15h9A1.417,1.417,0,0,1,36,16.5,1.417,1.417,0,0,1,34.5,18Z"/></g></svg>