<svg xmlns="http://www.w3.org/2000/svg" width="55.377" height="45.956" viewBox="0 0 55.377 45.956"><defs><style>.a{fill:rgba(47,47,47,0.95);}</style></defs><path class="a" d="M39.063,48.956a2.171,2.171,0,0,1-2.3-2.3v-4.6a6.77,6.77,0,0,0-6.893-6.893H11.489A6.77,6.77,0,0,0,4.6,42.063v4.6a2.171,2.171,0,0,1-2.3,2.3,2.171,2.171,0,0,1-2.3-2.3v-4.6A11.377,11.377,0,0,1,11.489,30.574H29.872A11.377,11.377,0,0,1,41.361,42.063v4.6A2.171,2.171,0,0,1,39.063,48.956ZM20.68,25.978A11.377,11.377,0,0,1,9.191,14.489,11.377,11.377,0,0,1,20.68,3,11.377,11.377,0,0,1,32.169,14.489,11.377,11.377,0,0,1,20.68,25.978Zm0-18.382a6.77,6.77,0,0,0-6.893,6.893,6.77,6.77,0,0,0,6.893,6.893,6.77,6.77,0,0,0,6.893-6.893A6.77,6.77,0,0,0,20.68,7.6ZM52.85,48.956a2.171,2.171,0,0,1-2.3-2.3v-4.6A6.7,6.7,0,0,0,45.5,35.4a2.257,2.257,0,0,1,1.149-4.366,12.012,12.012,0,0,1,8.732,11.029v4.6A2.505,2.505,0,0,1,52.85,48.956ZM36.765,25.748a2.419,2.419,0,0,1-2.3-1.838,2.363,2.363,0,0,1,1.608-2.757A7.041,7.041,0,0,0,41.131,16.1a7.2,7.2,0,0,0-5.055-8.5c-1.149,0-1.838-1.379-1.608-2.528A2.181,2.181,0,0,1,37.225,3.46,11.441,11.441,0,0,1,45.5,17.476a11.22,11.22,0,0,1-8.272,8.272Z" transform="translate(0 -3)"/></svg>