<svg xmlns="http://www.w3.org/2000/svg" width="54.704" height="45.587" viewBox="0 0 54.704 45.587"><defs><style>.a{fill:rgba(47,47,47,0.95);}</style></defs><path class="a" d="M36.469,48.587a2.153,2.153,0,0,1-2.279-2.279V41.749a6.716,6.716,0,0,0-6.838-6.838H11.4a6.716,6.716,0,0,0-6.838,6.838v4.559a2.153,2.153,0,0,1-2.279,2.279A2.153,2.153,0,0,1,0,46.307V41.749a11.286,11.286,0,0,1,11.4-11.4H27.352a11.286,11.286,0,0,1,11.4,11.4v4.559A2.153,2.153,0,0,1,36.469,48.587Zm-17.1-22.793a11.286,11.286,0,0,1-11.4-11.4A11.286,11.286,0,0,1,19.374,3a11.286,11.286,0,0,1,11.4,11.4A11.286,11.286,0,0,1,19.374,25.793Zm0-18.235A6.716,6.716,0,0,0,12.536,14.4a6.716,6.716,0,0,0,6.838,6.838A6.716,6.716,0,0,0,26.212,14.4,6.716,6.716,0,0,0,19.374,7.559ZM45.587,32.631a2.153,2.153,0,0,1-2.279-2.279V16.676a2.279,2.279,0,1,1,4.559,0V30.352A2.153,2.153,0,0,1,45.587,32.631Z" transform="translate(0 -3)"/><path class="a" d="M39.955,19.559H26.279A2.153,2.153,0,0,1,24,17.279,2.153,2.153,0,0,1,26.279,15H39.955a2.153,2.153,0,0,1,2.279,2.279A2.153,2.153,0,0,1,39.955,19.559Z" transform="translate(12.469 3.235)"/></svg>